<svg width="335" height="647" viewBox="0 0 335 647" fill="none" xmlns="http://www.w3.org/2000/svg">
<path d="M167.083 646.528C259.36 646.528 334.166 635.335 334.166 621.528C334.166 607.721 259.36 596.528 167.083 596.528C74.8056 596.528 0 607.721 0 621.528C0 635.335 74.8056 646.528 167.083 646.528Z" fill="#E6E6E6"/>
<path d="M98.9521 574.63L100.407 587.73L87.3081 586.274V570.263L98.9521 574.63Z" fill="#FFB8B8"/>
<path d="M235.773 574.63L234.317 587.73L247.417 586.274V570.263L235.773 574.63Z" fill="#FFB8B8"/>
<path d="M97.4962 292.254L91.6741 442.175C91.6741 442.175 72.7519 554.252 77.1186 557.163C81.4852 560.074 77.1186 576.085 77.1186 576.085L101.863 578.996C101.863 578.996 101.863 567.352 107.685 562.985C113.507 558.618 167.362 353.387 167.362 353.387L222.673 551.341C222.673 551.341 221.217 562.985 225.584 562.985C229.951 562.985 231.406 578.996 231.406 578.996H256.15V562.985C256.15 562.985 263.428 561.53 259.062 549.885C254.695 538.241 238.684 292.254 238.684 292.254L97.4962 292.254Z" fill="#2F2E41"/>
<path d="M90.2188 574.629C90.2188 574.629 82.9411 570.262 80.03 573.174C77.1189 576.085 53.8302 605.196 53.8302 605.196C53.8302 605.196 21.8082 625.573 50.9191 631.395C80.03 637.218 101.863 609.562 103.319 606.651C104.774 603.74 101.863 580.451 100.408 583.362C98.9521 586.273 94.5854 584.818 93.1299 583.362C91.6744 581.907 90.2188 574.629 90.2188 574.629Z" fill="#2F2E41"/>
<path d="M244.506 574.629C244.506 574.629 251.784 570.262 254.695 573.174C257.606 576.085 280.895 605.196 280.895 605.196C280.895 605.196 312.917 625.573 283.806 631.395C254.695 637.218 232.862 609.562 231.406 606.651C229.951 603.74 232.862 580.451 234.318 583.362C235.773 586.273 240.14 584.818 241.595 583.362C243.051 581.907 244.506 574.629 244.506 574.629Z" fill="#2F2E41"/>
<path d="M185.557 76.8336C202.036 76.8336 215.396 63.4743 215.396 46.9949C215.396 30.5155 202.036 17.1562 185.557 17.1562C169.078 17.1562 155.718 30.5155 155.718 46.9949C155.718 63.4743 169.078 76.8336 185.557 76.8336Z" fill="#FFB8B8"/>
<path d="M165.907 63.7333L161.54 108.855L196.473 116.133L205.207 62.2783L165.907 63.7333Z" fill="#FFB8B8"/>
<path d="M202.296 98.6665C202.296 98.6665 193.562 117.589 161.541 97.2109L101.863 292.254C101.863 292.254 181.918 340.287 232.862 303.898L215.396 107.4L202.296 98.6665Z" fill="#4C5C68"/>
<path d="M167.362 76.8334L139.707 72.4668L136.796 91.3889C136.796 91.3889 98.9519 95.7555 94.5852 110.311L98.9519 218.021C98.9519 218.021 85.852 241.31 97.4963 255.865C97.4963 255.865 78.5742 295.165 93.1297 302.443C93.1297 302.443 126.607 286.432 146.985 290.798C146.985 290.798 158.629 287.887 158.629 279.154C158.629 270.421 167.362 76.8334 167.362 76.8334Z" fill="#2F2E41"/>
<path d="M200.84 79.7441L216.851 84.1108L218.307 104.488C218.307 104.488 257.606 129.233 259.062 143.788C260.517 158.344 229.951 228.21 229.951 228.21C229.951 228.21 241.595 248.587 237.229 261.687C237.229 261.687 256.151 299.531 244.506 309.72C244.506 309.72 222.673 315.542 219.762 306.809C216.851 298.076 190.651 197.643 202.296 149.61C202.296 149.61 190.651 88.4774 200.84 79.7441Z" fill="#2F2E41"/>
<path d="M217.579 127.147H217.031V112.139C217.031 110.998 216.806 109.868 216.369 108.814C215.933 107.761 215.293 106.803 214.487 105.996C213.68 105.19 212.722 104.55 211.668 104.113C210.615 103.677 209.485 103.452 208.344 103.452H176.547C175.407 103.452 174.277 103.677 173.223 104.113C172.169 104.55 171.212 105.19 170.405 105.996C169.598 106.803 168.959 107.761 168.522 108.814C168.086 109.868 167.861 110.998 167.861 112.139V194.475C167.861 195.616 168.086 196.745 168.522 197.799C168.959 198.853 169.598 199.811 170.405 200.617C171.212 201.424 172.169 202.064 173.223 202.5C174.277 202.937 175.407 203.162 176.547 203.161H208.344C209.485 203.162 210.615 202.937 211.668 202.5C212.722 202.064 213.68 201.424 214.487 200.617C215.293 199.811 215.933 198.853 216.369 197.799C216.806 196.745 217.031 195.616 217.031 194.475V137.83H217.579V127.147Z" fill="white"/>
<path d="M231.406 185.999C231.406 185.999 219.762 148.155 202.295 159.8C184.829 171.444 213.94 203.466 213.94 203.466L231.406 185.999Z" fill="#FFB8B8"/>
<path d="M151.352 158.344C151.352 158.344 171.729 133.599 181.918 145.244C192.107 156.888 164.451 183.088 164.451 183.088L151.352 158.344Z" fill="#FFB8B8"/>
<path d="M98.9517 108.856C98.9517 108.856 91.6739 107.4 87.3073 120.5C82.9407 133.6 66.9297 183.088 66.9297 191.822C66.9297 200.555 72.7518 235.488 104.774 229.666C136.796 223.844 174.64 183.088 174.64 183.088L154.262 152.522L110.596 178.722L98.9517 108.856Z" fill="#2F2E41"/>
<path opacity="0.1" d="M105.241 146.59L111.324 177.993L156.446 151.794L114.235 167.805L104.929 144.716L105.241 146.59Z" fill="black"/>
<path opacity="0.1" d="M233.59 177.993L239.412 182.36L242.323 161.982L233.59 177.993Z" fill="black"/>
<path opacity="0.1" d="M98.2241 233.304C98.2241 233.304 140.977 221.673 161.084 196.194C161.084 196.194 140.435 230.393 98.2241 233.304Z" fill="black"/>
<path opacity="0.1" d="M205.935 207.104C205.935 207.104 214.937 251.164 238.091 252.423C238.091 252.423 210.301 260.96 205.935 207.104Z" fill="black"/>
<path d="M253.24 137.966C253.24 137.966 257.606 140.877 260.517 153.977C263.428 167.077 282.35 216.565 275.073 228.21C267.795 239.854 256.151 266.054 231.406 248.587L206.662 203.465L231.406 180.177L241.595 187.454L253.24 137.966Z" fill="#2F2E41"/>
<path d="M156.911 54.5621C156.911 54.5621 131.886 14.0043 158.541 11.8949C167.436 11.2728 176.122 8.90611 184.103 4.92985C192.939 0.433777 204.061 -2.98368 209.979 3.93745C212.562 7.1022 215.573 9.89169 218.926 12.2255C224.125 15.6733 230.14 21.2627 226.809 27.2584L221.348 37.0877L213.703 56.7464C215.484 48.2671 215.528 41.1476 210.973 37.6338C210.973 37.6338 185.557 48.4499 172.748 28.8966C158.409 18.1383 153.847 52.0006 156.911 54.5621Z" fill="#2F2E41"/>
</svg>
