<svg width="300" height="450" viewBox="0 0 300 450" fill="none" xmlns="http://www.w3.org/2000/svg">
<rect width="300" height="450" fill="#697F8F"/>
<path fill-rule="evenodd" clip-rule="evenodd" d="M67 174C67 168.478 71.4771 164 77 164H224C229.523 164 234 168.478 234 174V277C234 282.522 229.523 287 224 287H77C71.4771 287 67 282.522 67 277V174ZM80 176C80 174.896 80.8955 174 82 174H94C95.1045 174 96 174.896 96 176V188C96 189.104 95.1045 190 94 190H82C80.8955 190 80 189.104 80 188V176ZM82 261C80.8955 261 80 261.896 80 263V275C80 276.104 80.8955 277 82 277H94C95.1045 277 96 276.104 96 275V263C96 261.896 95.1045 261 94 261H82ZM111 176C111 174.896 111.896 174 113 174H125C126.104 174 127 174.896 127 176V188C127 189.104 126.104 190 125 190H113C111.896 190 111 189.104 111 188V176ZM113 261C111.896 261 111 261.896 111 263V275C111 276.104 111.896 277 113 277H125C126.104 277 127 276.104 127 275V263C127 261.896 126.104 261 125 261H113ZM142 176C142 174.896 142.896 174 144 174H156C157.104 174 158 174.896 158 176V188C158 189.104 157.104 190 156 190H144C142.896 190 142 189.104 142 188V176ZM144 261C142.896 261 142 261.896 142 263V275C142 276.104 142.896 277 144 277H156C157.104 277 158 276.104 158 275V263C158 261.896 157.104 261 156 261H144ZM173 176C173 174.896 173.896 174 175 174H187C188.104 174 189 174.896 189 176V188C189 189.104 188.104 190 187 190H175C173.896 190 173 189.104 173 188V176ZM175 261C173.896 261 173 261.896 173 263V275C173 276.104 173.896 277 175 277H187C188.104 277 189 276.104 189 275V263C189 261.896 188.104 261 187 261H175ZM204 176C204 174.896 204.896 174 206 174H218C219.104 174 220 174.896 220 176V188C220 189.104 219.104 190 218 190H206C204.896 190 204 189.104 204 188V176ZM206 261C204.896 261 204 261.896 204 263V275C204 276.104 204.896 277 206 277H218C219.104 277 220 276.104 220 275V263C220 261.896 219.104 261 218 261H206Z" fill="#335061"/>
</svg>
