<svg width="363" height="363" viewBox="0 0 363 363" fill="none" xmlns="http://www.w3.org/2000/svg">
<path opacity="0.5" fill-rule="evenodd" clip-rule="evenodd" d="M246.347 268.095C220.349 289.291 187.159 302 151 302C67.605 302 0 234.395 0 151C0 67.6055 67.605 0 151 0C234.395 0 302 67.6055 302 151C302 187.158 289.291 220.349 268.096 246.347C268.254 246.493 268.41 246.642 268.563 246.796L357.657 335.889C363.668 341.9 363.668 351.645 357.657 357.656C351.646 363.667 341.9 363.667 335.889 357.656L246.796 268.563C246.642 268.409 246.493 268.254 246.347 268.095ZM271 151C271 217.274 217.274 271 151 271C84.7256 271 31 217.274 31 151C31 84.7256 84.7256 31 151 31C217.274 31 271 84.7256 271 151Z" fill="#C4C4C4"/>
</svg>
