<svg width="18" height="17" viewBox="0 0 18 17" fill="none" xmlns="http://www.w3.org/2000/svg">
<path d="M8.29894 0.927053C8.59829 0.00574193 9.9017 0.00573961 10.2011 0.92705L11.5513 5.08258C11.6851 5.4946 12.0691 5.77356 12.5023 5.77356H16.8717C17.8404 5.77356 18.2432 7.01317 17.4595 7.58258L13.9246 10.1508C13.5741 10.4055 13.4274 10.8568 13.5613 11.2689L14.9115 15.4244C15.2109 16.3457 14.1564 17.1118 13.3727 16.5424L9.83779 13.9742C9.4873 13.7195 9.0127 13.7195 8.66221 13.9742L5.12732 16.5424C4.3436 17.1118 3.28912 16.3457 3.58847 15.4244L4.93868 11.2689C5.07256 10.8568 4.9259 10.4055 4.57541 10.1508L1.04051 7.58258C0.2568 7.01318 0.659574 5.77356 1.6283 5.77356H5.99767C6.4309 5.77356 6.81486 5.4946 6.94873 5.08258L8.29894 0.927053Z" fill="#FFD787"/>
</svg>
